# xmcd
#
# Track frame offsets:
#	150
#	15746
#	31068
#	46451
#	63874
#	78440
#	95295
#	107866
#	123025
#	138446
#	155211
#	173671
#
# Disc length: 2515 seconds
# Revision: 0
# Processed by: cddbd v1.5.2PL0 Copyright (c) Steve Scherf et al.
# Submitted via: dBpowerAMP V12.0
#
DISCID=9109d10c
DTITLE=Miss Montreal - Miss Montreal
DYEAR=2009
DGENRE=Pop
TTITLE0=Seven Friends
TTITLE1=Rose
TTITLE2=Just A Flirt
TTITLE3=Every Time
TTITLE4=In The Middle
TTITLE5=Won't You Let Me Have My Way With You (With Bertolf)
TTITLE6=This Is My Life
TTITLE7=Ricardo
TTITLE8=This One's For You
TTITLE9=So This Is Home
TTITLE10=I Wanna Do Something Good
TTITLE11=Addicted To Crying
EXTD=
EXTT0=
EXTT1=
EXTT2=
EXTT3=
EXTT4=
EXTT5=
EXTT6=
EXTT7=
EXTT8=
EXTT9=
EXTT10=
EXTT11=
PLAYORDER=
